<mxfile host="app.diagrams.net" modified="2020-09-07T08:59:10.769Z" agent="5.0 (Windows NT 10.0; Win64; x64) AppleWebKit/537.36 (KHTML, like Gecko) Chrome/85.0.4183.83 Safari/537.36" etag="4ZZCDDsJ1NsncSg3CHVB" version="13.6.6" type="github">
  <diagram id="iEUPozLsDsx7m8_asPWK" name="Page-1">
    <mxGraphModel dx="652" dy="592" grid="1" gridSize="10" guides="1" tooltips="1" connect="1" arrows="1" fold="1" page="1" pageScale="1" pageWidth="850" pageHeight="1100" math="0" shadow="0">
      <root>
        <mxCell id="0" />
        <mxCell id="1" parent="0" />
        <mxCell id="k_jq2460wZ7kHOdffIEp-2" value="Sera" style="rounded=1;whiteSpace=wrap;html=1;" vertex="1" parent="1">
          <mxGeometry x="170" y="90" width="120" height="60" as="geometry" />
        </mxCell>
      </root>
    </mxGraphModel>
  </diagram>
</mxfile>
